<?xml version="1.0" encoding="UTF-8"?>
<!DOCTYPE svg PUBLIC "-//W3C//DTD SVG 1.1//EN" "http://www.w3.org/Graphics/SVG/1.1/DTD/svg11.dtd">
<svg xmlns="http://www.w3.org/2000/svg" version="1.1" width="650" height="700" style="background-color:lightgray;" ><defs><marker id="arrow" viewBox="0 0 10 10" refX="5" refY="5" markerWidth="6" markerHeight="6" orient="auto-start-reverse"> <path d="M 0 0 L 10 5 L 0 10 z" /></marker></defs><image x="-740" y="-760" width="1800" height="1850" href="images/village.png" opacity="5.0" ></image><line x1 = "97" y1 = "80" x2 = "97" y2 = "105" style = "font: bold 16px sans-serif; stroke:rgb(70,70,70);stroke-width:2" fill="none" /><line x1 = "170" y1 = "132" x2 = "195" y2 = "132" style = "font: bold 16px sans-serif; stroke:rgb(70,70,70);stroke-width:2" fill="none" /><line x1 = "97" y1 = "160" x2 = "267" y2 = "425" style = "font: bold 16px sans-serif; stroke:rgb(70,70,70);stroke-width:2" fill="none" /><path d="M 170 160   C 190 180, 195 245 195 265"  stroke="red" fill="none" stroke-dasharray="10 5"  style="stroke-width: 3;" /><line x1 = "340" y1 = "132" x2 = "365" y2 = "132" style = "font: bold 16px sans-serif; stroke:rgb(70,70,70);stroke-width:2" fill="none" /><path d="M 437 160   C 837 510, 480 425 340 425"  stroke="black" fill="none" stroke-dasharray="10 5"  style="stroke-width: 2;" /><line x1 = "267" y1 = "320" x2 = "267" y2 = "425" style = "font: bold 16px sans-serif; stroke:rgb(70,70,70);stroke-width:2" fill="none" /><rect x="25" y="25" width="145" height="55" rx="8" ry="8" stroke-width="2" stroke="black" fill="rgb(240,240,255)"  style="opacity: 0.7" /><text x="97" y="55" text-anchor="middle"  font-size="20"   style="font: bold 25 open-sans;">the bridge</text><rect x="25" y="105" width="145" height="55" rx="8" ry="8" stroke-width="2" stroke="black" fill="rgb(240,240,255)"  style="opacity: 0.9; stroke:blue; stroke-width:3;" /><text x="97" y="135" text-anchor="middle"  font-size="20"   style="font: bold 25 open-sans;">[the town center]</text><rect x="195" y="105" width="145" height="55" rx="8" ry="8" stroke-width="2" stroke="black" fill="rgb(240,240,255)"  style="opacity: 0.7" /><text x="267" y="135" text-anchor="middle"  font-size="20"   style="font: bold 25 open-sans;">the inn</text><rect x="365" y="105" width="145" height="55" rx="8" ry="8" stroke-width="2" stroke="black" fill="rgb(240,240,255)"  style="opacity: 0.7" /><text x="437" y="135" text-anchor="middle"  font-size="20"   style="font: bold 25 open-sans;">the temple</text><rect x="195" y="265" width="145" height="55" rx="8" ry="8" stroke-width="2" stroke="black" fill="rgb(240,240,255)"  style="opacity: 0.7" /><text x="267" y="295" text-anchor="middle"  font-size="20"   style="font: bold 25 open-sans;">the forge</text><rect x="195" y="425" width="145" height="55" rx="8" ry="8" stroke-width="2" stroke="black" fill="rgb(240,240,255)"  style="opacity: 0.7" /><text x="267" y="455" text-anchor="middle"  font-size="20"   style="font: bold 25 open-sans;">castle fields</text></svg>