<?xml version="1.0" encoding="UTF-8"?>
<!DOCTYPE svg PUBLIC "-//W3C//DTD SVG 1.1//EN" "http://www.w3.org/Graphics/SVG/1.1/DTD/svg11.dtd">
<svg xmlns="http://www.w3.org/2000/svg" version="1.1" width="1105" height="425" style="background-color:rgb(10,10,10)" ><defs><marker id="arrow" stroke="black" fill="white" viewBox="0 0 10 10" refX="10" refY="5" markerWidth="6" markerHeight="6" orient="auto-start-reverse" markerUnits="strokeWidth"> <path d="M 0 0 L 10 5 L 0 10 z" /></marker><marker id="redArrow" stroke="black" fill="red" viewBox="0 0 10 10" refX="10" refY="5" markerWidth="6" markerHeight="6" orient="auto-start-reverse" markerUnits="strokeWidth"> <path d="M 0 0 L 10 5 L 0 10 z" /></marker><marker id="blackArrow" stroke="black" fill="black" viewBox="0 0 10 10" refX="10" refY="5" markerWidth="6" markerHeight="6" orient="auto-start-reverse" markerUnits="strokeWidth"> <path d="M 0 0 L 10 5 L 0 10 z" /></marker></defs><line x1 = "360" y1 = "52" x2 = "385" y2 = "52" style="stroke:lightgray;stroke-width:2" fill="none"  /><line x1 = "282" y1 = "80" x2 = "282" y2 = "105" style="stroke:lightgray;stroke-width:2" fill="none"  /><line x1 = "462" y1 = "80" x2 = "462" y2 = "185" style="stroke:lightgray;stroke-width:2" fill="none"  /><line x1 = "102" y1 = "160" x2 = "102" y2 = "185" style="stroke:lightgray;stroke-width:2" fill="none"  /><line x1 = "360" y1 = "160" x2 = "385" y2 = "185" style="stroke:lightgray;stroke-width:2" fill="none"  /><line x1 = "180" y1 = "212" x2 = "205" y2 = "212" style="stroke:lightgray;stroke-width:2" fill="none"  /><line x1 = "462" y1 = "240" x2 = "462" y2 = "265" style="stroke:lightgray;stroke-width:2" fill="none"  /><line x1 = "180" y1 = "320" x2 = "205" y2 = "345" style="stroke:lightgray;stroke-width:2" fill="none"  /><line x1 = "540" y1 = "292" x2 = "565" y2 = "292" style="stroke:lightgray;stroke-width:2" fill="none"  /><line x1 = "385" y1 = "320" x2 = "360" y2 = "345" style="stroke:lightgray;stroke-width:2" fill="none"  /><line x1 = "720" y1 = "292" x2 = "925" y2 = "292" style="stroke:lightgray;stroke-width:2" fill="none"  /><rect x="205" y="25"  width="155" height="55" rx="8" ry="8" stroke-width="1" stroke="white" fill="rgb(30,30,30)"   style=""  /><text x="282" y="55" text-anchor="middle"  font-size="12"   style="font: bold 16px sans-serif; fill:lightgray;">the garden north</text><rect x="385" y="25"  width="155" height="55" rx="8" ry="8" stroke-width="1" stroke="white" fill="rgb(30,30,30)"   style=""  /><text x="462" y="55" text-anchor="middle"  font-size="12"   style="font: bold 16px sans-serif; fill:lightgray;">meadow</text><rect x="25" y="105"  width="155" height="55" rx="8" ry="8" stroke-width="1" stroke="white" fill="rgb(30,30,30)"   style=""  /><text x="102" y="135" text-anchor="middle"  font-size="12"   style="font: bold 16px sans-serif; fill:lightgray;">living room</text><rect x="205" y="105"  width="155" height="55" rx="8" ry="8" stroke-width="1" stroke="white" fill="rgb(30,30,30)"   style=""  /><text x="282" y="135" text-anchor="middle"  font-size="12"   style="font: bold 16px sans-serif; fill:lightgray;">the garden south</text><rect x="25" y="185"  width="155" height="55" rx="8" ry="8" stroke-width="1" stroke="white" fill="rgb(30,30,30)"   style=""  /><text x="102" y="215" text-anchor="middle"  font-size="12"   style="font: bold 16px sans-serif; fill:lightgray;">hallway</text><rect x="205" y="185"  width="155" height="55" rx="8" ry="8" stroke-width="1" stroke="white" fill="rgb(30,30,30)"   style="stroke:white; stroke-width:3"  /><text x="282" y="215" text-anchor="middle"  font-size="12"   style="font: bold 16px sans-serif; fill:lightgray;">kitchen</text><rect x="385" y="185"  width="155" height="55" rx="8" ry="8" stroke-width="1" stroke="white" fill="rgb(30,30,30)"   style=""  /><text x="462" y="215" text-anchor="middle"  font-size="12"   style="font: bold 16px sans-serif; fill:lightgray;">the back yard</text><rect x="25" y="265"  width="155" height="55" rx="8" ry="8" stroke-width="1" stroke="white" fill="rgb(30,30,30)"   style=""  /><text x="102" y="295" text-anchor="middle"  font-size="12"   style="font: bold 16px sans-serif; fill:lightgray;">porch</text><rect x="385" y="265"  width="155" height="55" rx="8" ry="8" stroke-width="1" stroke="white" fill="rgb(30,30,30)"   style=""  /><text x="462" y="295" text-anchor="middle"  font-size="12"   style="font: bold 16px sans-serif; fill:lightgray;">on the east side of </text><rect x="565" y="265"  width="155" height="55" rx="8" ry="8" stroke-width="1" stroke="white" fill="rgb(30,30,30)"   style=""  /><text x="642" y="295" text-anchor="middle"  font-size="12"   style="font: bold 16px sans-serif; fill:lightgray;">long road west end</text><rect x="925" y="265"  width="155" height="55" rx="8" ry="8" stroke-width="1" stroke="white" fill="rgb(30,30,30)"   style=""  /><text x="1002" y="295" text-anchor="middle"  font-size="12"   style="font: bold 16px sans-serif; fill:lightgray;">long road east end</text><rect x="205" y="345"  width="155" height="55" rx="8" ry="8" stroke-width="1" stroke="white" fill="rgb(30,30,30)"   style=""  /><text x="282" y="375" text-anchor="middle"  font-size="12"   style="font: bold 16px sans-serif; fill:lightgray;">on the driveway</text><line x1 = "102" y1 = "240" x2 = "102" y2 = "265" style="stroke:lightgray;stroke-width:2" fill="none"  />, <rect x="98" y="244"  width="8" height="12"  style = "fill:lightgray; stroke:lightgray;"  rx="2" ry="2" /> <path d="M0,4   L 4,0,      L 4,12,  L 0,16   L 0,4"  transform=" translate(102 244)"  style = "fill:darkness; stroke:lightgray;" /> ,<line x1 = "102" y1 = "185" x2 = "102" y2 = "185" style="stroke:lightgray;stroke-width:2" fill="none"  />, <path stroke="black" fill="white"  transform="translate(25 187)" d="M10,0 L17,5  L12,5 L12,13  L8,13  L8,5  L3,5  L10,0"  />  ,<text x="30" y="235" style="stroke: grey; font-size:8px">[out]</text>,<text x="155" y="280" style="stroke: grey; font-size:8px">[in]</text></svg>