<?xml version="1.0" encoding="UTF-8"?>
<!DOCTYPE svg PUBLIC "-//W3C//DTD SVG 1.1//EN" "http://www.w3.org/Graphics/SVG/1.1/DTD/svg11.dtd">
<svg xmlns="http://www.w3.org/2000/svg" version="1.1" width="1465" height="425" style="background-color:lightgray;" ><rect x="25" y="25" width="155" height="55" rx="8" ry="8" stroke-width="1" stroke="black" fill="white" style="" /><line x1 = "102.5" y1 = "80" x2 = "102.5" y2 = "221.76" style = "font: bold 16px sans-serif; stroke:rgb(70,70,70);stroke-width:2" /><text x="102" y="55" text-anchor="middle" style="">edge of the forest</text><rect x="565" y="25" width="155" height="55" rx="8" ry="8" stroke-width="1" stroke="black" fill="white" style="" /><line x1 = "720" y1 = "52.5" x2 = "745" y2 = "52.5" style = "font: bold 16px sans-serif; stroke:rgb(70,70,70);stroke-width:2" /><line x1 = "642.5" y1 = "80" x2 = "642.5" y2 = "105" style = "font: bold 16px sans-serif; stroke:rgb(70,70,70);stroke-width:2" /><text x="642" y="55" text-anchor="middle" style="">the garden north</text><rect x="745" y="25" width="155" height="55" rx="8" ry="8" stroke-width="1" stroke="black" fill="white" style="" /><line x1 = "745" y1 = "52.5" x2 = "720" y2 = "52.5" style = "font: bold 16px sans-serif; stroke:rgb(70,70,70);stroke-width:2" /><line x1 = "822.5" y1 = "80" x2 = "822.5" y2 = "182.84" style = "font: bold 16px sans-serif; stroke:rgb(70,70,70);stroke-width:2" /><text x="822" y="55" text-anchor="middle" style="">on the meadow</text><rect x="385" y="105" width="155" height="55" rx="8" ry="8" stroke-width="1" stroke="black" fill="white" style="" /><line x1 = "462.5" y1 = "160" x2 = "462.5" y2 = "185" style = "font: bold 16px sans-serif; stroke:rgb(70,70,70);stroke-width:2" /><text x="462" y="135" text-anchor="middle" style="">living room</text><rect x="565" y="105" width="155" height="55" rx="8" ry="8" stroke-width="1" stroke="black" fill="white" style="" /><line x1 = "720" y1 = "160" x2 = "745" y2 = "185" style = "font: bold 16px sans-serif; stroke:rgb(70,70,70);stroke-width:2" /><line x1 = "642.5" y1 = "105" x2 = "642.5" y2 = "80" style = "font: bold 16px sans-serif; stroke:rgb(70,70,70);stroke-width:2" /><text x="642" y="135" text-anchor="middle" style="">the garden south</text><rect x="385" y="185" width="155" height="55" rx="8" ry="8" stroke-width="1" stroke="black" fill="white" style="" /><line x1 = "540" y1 = "212.5" x2 = "565" y2 = "212.5" style = "font: bold 16px sans-serif; stroke:rgb(70,70,70);stroke-width:2" /><rect x="458.5" y="244"  width="8" height="12"  style = "fill:white; stroke:black;" rx="2" ry="2" /> <circle cx="459.5" cy="250" r="0.5"  style = "stroke:black; fill:black;" /> <line x1 = "462.5" y1 = "185" x2 = "462.5" y2 = "160" style = "font: bold 16px sans-serif; stroke:rgb(70,70,70);stroke-width:2" /> <path stroke="black" fill="black"  transform="translate(385 187)" d="M10,0 L17,5  L12,5 L12,13  L8,13  L8,5  L3,5  L10,0"  />  <path stroke="black" fill="black"  transform=" rotate(180 540 238)  translate(540 238)"  d="M10,0 L17,5  L12,5 L12,13  L8,13  L8,5  L3,5  L10,0"  />  <text x="390" y="235" style="stroke: grey; font-size:8px">[out]</text><text x="462" y="215" text-anchor="middle" style="">hallway</text><rect x="565" y="185" width="155" height="55" rx="8" ry="8" stroke-width="1" stroke="black" fill="white" style="" /><line x1 = "565" y1 = "212.5" x2 = "540" y2 = "212.5" style = "font: bold 16px sans-serif; stroke:rgb(70,70,70);stroke-width:2" /><text x="642" y="215" text-anchor="middle" style="">kitchen</text><rect x="745" y="185" width="155" height="55" rx="8" ry="8" stroke-width="1" stroke="black" fill="white" style="" /><line x1 = "822.5" y1 = "240" x2 = "822.5" y2 = "265" style = "font: bold 16px sans-serif; stroke:rgb(70,70,70);stroke-width:2" /><line x1 = "822.5" y1 = "185" x2 = "822.5" y2 = "82.16" style = "font: bold 16px sans-serif; stroke:rgb(70,70,70);stroke-width:2" /><line x1 = "745" y1 = "185" x2 = "720" y2 = "160" style = "font: bold 16px sans-serif; stroke:rgb(70,70,70);stroke-width:2" /><text x="822" y="215" text-anchor="middle" style="">the back yard</text><rect x="25" y="265" width="155" height="55" rx="8" ry="8" stroke-width="1" stroke="black" fill="white" style="" /><line x1 = "180" y1 = "320" x2 = "205" y2 = "345" style = "font: bold 16px sans-serif; stroke:rgb(70,70,70);stroke-width:2" /><line x1 = "102.5" y1 = "265" x2 = "102.5" y2 = "123.24" style = "font: bold 16px sans-serif; stroke:rgb(70,70,70);stroke-width:2" /><text x="102" y="295" text-anchor="middle" style="">side of the house we</text><rect x="385" y="265" width="155" height="55" rx="8" ry="8" stroke-width="1" stroke="black" fill="white" style="stroke:blue; stroke-width:2" /><line x1 = "540" y1 = "320" x2 = "565" y2 = "345" style = "font: bold 16px sans-serif; stroke:rgb(70,70,70);stroke-width:2" /><line x1 = "385" y1 = "320" x2 = "360" y2 = "345" style = "font: bold 16px sans-serif; stroke:rgb(70,70,70);stroke-width:2" /><text x="515" y="280" style="stroke: grey; font-size:8px">[in]</text><text x="462" y="295" text-anchor="middle" style="">[porch]</text><rect x="745" y="265" width="155" height="55" rx="8" ry="8" stroke-width="1" stroke="black" fill="white" style="" /><line x1 = "900" y1 = "292.5" x2 = "925" y2 = "292.5" style = "font: bold 16px sans-serif; stroke:rgb(70,70,70);stroke-width:2" /><line x1 = "745" y1 = "320" x2 = "720" y2 = "345" style = "font: bold 16px sans-serif; stroke:rgb(70,70,70);stroke-width:2" /><line x1 = "822.5" y1 = "265" x2 = "822.5" y2 = "240" style = "font: bold 16px sans-serif; stroke:rgb(70,70,70);stroke-width:2" /><text x="875" y="280" style="stroke: grey; font-size:8px">[in]</text><text x="822" y="295" text-anchor="middle" style="">on the east side of </text><rect x="925" y="265" width="155" height="55" rx="8" ry="8" stroke-width="1" stroke="black" fill="white" style="" /><line x1 = "1080" y1 = "292.5" x2 = "1285" y2 = "292.5" style = "font: bold 16px sans-serif; stroke:rgb(70,70,70);stroke-width:2" /><line x1 = "925" y1 = "292.5" x2 = "900" y2 = "292.5" style = "font: bold 16px sans-serif; stroke:rgb(70,70,70);stroke-width:2" /><text x="1002" y="295" text-anchor="middle" style="">long road west end</text><rect x="1285" y="265" width="155" height="55" rx="8" ry="8" stroke-width="1" stroke="black" fill="white" style="" /><line x1 = "1285" y1 = "292.5" x2 = "1080" y2 = "292.5" style = "font: bold 16px sans-serif; stroke:rgb(70,70,70);stroke-width:2" /><text x="1362" y="295" text-anchor="middle" style="">long road east end</text><rect x="205" y="345" width="155" height="55" rx="8" ry="8" stroke-width="1" stroke="black" fill="white" style="" /><line x1 = "360" y1 = "372.5" x2 = "565" y2 = "372.5" style = "font: bold 16px sans-serif; stroke:rgb(70,70,70);stroke-width:2" /><line x1 = "360" y1 = "345" x2 = "385" y2 = "320" style = "font: bold 16px sans-serif; stroke:rgb(70,70,70);stroke-width:2" /><line x1 = "205" y1 = "345" x2 = "180" y2 = "320" style = "font: bold 16px sans-serif; stroke:rgb(70,70,70);stroke-width:2" /><text x="282" y="375" text-anchor="middle" style="">lawn</text><rect x="565" y="345" width="155" height="55" rx="8" ry="8" stroke-width="1" stroke="black" fill="white" style="" /><line x1 = "565" y1 = "372.5" x2 = "360" y2 = "372.5" style = "font: bold 16px sans-serif; stroke:rgb(70,70,70);stroke-width:2" /><line x1 = "720" y1 = "345" x2 = "745" y2 = "320" style = "font: bold 16px sans-serif; stroke:rgb(70,70,70);stroke-width:2" /><line x1 = "565" y1 = "345" x2 = "540" y2 = "320" style = "font: bold 16px sans-serif; stroke:rgb(70,70,70);stroke-width:2" /><text x="642" y="375" text-anchor="middle" style="">on the driveway</text></svg>