<?xml version="1.0" encoding="UTF-8"?>
<!DOCTYPE svg PUBLIC "-//W3C//DTD SVG 1.1//EN" "http://www.w3.org/Graphics/SVG/1.1/DTD/svg11.dtd">
<svg xmlns="http://www.w3.org/2000/svg" version="1.1" width="1645" height="825" style="background-color:lightgray;" ><defs><marker id="arrow" stroke="black" fill="white" viewBox="0 0 10 10" refX="10" refY="5" markerWidth="6" markerHeight="6" orient="auto-start-reverse" markerUnits="strokeWidth"> <path d="M 0 0 L 10 5 L 0 10 z" /></marker><marker id="redArrow" stroke="black" fill="red" viewBox="0 0 10 10" refX="10" refY="5" markerWidth="6" markerHeight="6" orient="auto-start-reverse" markerUnits="strokeWidth"> <path d="M 0 0 L 10 5 L 0 10 z" /></marker><marker id="blackArrow" stroke="black" fill="black" viewBox="0 0 10 10" refX="10" refY="5" markerWidth="6" markerHeight="6" orient="auto-start-reverse" markerUnits="strokeWidth"> <path d="M 0 0 L 10 5 L 0 10 z" /></marker></defs><path d="M 720,52  950,52  1182,135 1182,265" fill="none"  style = "font: bold 16px sans-serif; stroke:rgb(70,70,70);stroke-width:2" /><path d="M 565,52  335,52  102,135 102,265" fill="none"  style = "font: bold 16px sans-serif; stroke:rgb(70,70,70);stroke-width:2" /><line x1 = "642" y1 = "80" x2 = "642" y2 = "265" style="font: bold 16px sans-serif; stroke:rgb(70,70,70);stroke-width:2" fill="none"  />             <path id="path-1"  fill="none"  d="M 642 265  L 822 240  " stroke="black" stroke-dasharray="4 4"></path>  <path id="path-2" d="M 642 277  L 822 252  "></path>  <text> <textPath href="#path-1" startOffset="5%">Up</textPath> <textPath href="#path-2" startOffset="65%" side="left">Down</textPath> </text>  <line x1 = "180" y1 = "292" x2 = "565" y2 = "292" style="font: bold 16px sans-serif; stroke:rgb(70,70,70);stroke-width:2" fill="none"  /><line x1 = "720" y1 = "292" x2 = "1105" y2 = "292" style="font: bold 16px sans-serif; stroke:rgb(70,70,70);stroke-width:2" fill="none"  /><line x1 = "642" y1 = "320" x2 = "642" y2 = "345" style="font: bold 16px sans-serif; stroke:rgb(70,70,70);stroke-width:2" fill="none"  /><line x1 = "1260" y1 = "292" x2 = "1465" y2 = "292" style="font: bold 16px sans-serif; stroke:rgb(70,70,70);stroke-width:2" fill="none"  /><line x1 = "1182" y1 = "320" x2 = "1182" y2 = "505" style="font: bold 16px sans-serif; stroke:rgb(70,70,70);stroke-width:2" fill="none"  /><path d="M 1542 320 C 1542 410, 1497 410, 1352 295" fill="none" stroke="black" marker-end="url(#arrow)"  style="font: bold 16px sans-serif; stroke:rgb(70,70,70);stroke-width:2" /><path d="M 1542 265 C 1542 175, 1497 175, 1397 290" fill="none" stroke="black" marker-end="url(#arrow)"  style="font: bold 16px sans-serif; stroke:rgb(70,70,70);stroke-width:2" /><path d="M 720 372 C 810 372, 1002 415, 1002 505" fill="none"  style="font: bold 16px sans-serif; stroke:rgb(70,70,70);stroke-width:2" /><path d="M 565 372 C 475 372, 282 415, 282 505" fill="none"  style="font: bold 16px sans-serif; stroke:rgb(70,70,70);stroke-width:2" /><line x1 = "822" y1 = "480" x2 = "822" y2 = "505" style="font: bold 16px sans-serif; stroke:rgb(70,70,70);stroke-width:2" fill="none"  /><line x1 = "180" y1 = "532" x2 = "205" y2 = "532" style="font: bold 16px sans-serif; stroke:rgb(70,70,70);stroke-width:2" fill="none"  /><path d="M 282 560 C 282 650, 475 692, 565 692" fill="none" stroke="black" marker-start="url(#arrow)" marker-end="url(#arrow)"  style="font: bold 16px sans-serif; stroke:rgb(70,70,70);stroke-width:2" /><path d="M 205 505  C 165 465,  100 395,  100 345"  marker-end="url(#redArrow)" fill="none" stroke-dasharray="10 5" style="stroke:red; stroke-width:2;"> <animate attributeName="stroke-dashoffset" values="15;0" dur="5s" repeatCount="indefinite" /> </path><line x1 = "720" y1 = "532" x2 = "745" y2 = "532" style="font: bold 16px sans-serif; stroke:rgb(70,70,70);stroke-width:2" fill="none"  /><line x1 = "900" y1 = "532" x2 = "925" y2 = "532" style="font: bold 16px sans-serif; stroke:rgb(70,70,70);stroke-width:2" fill="none"  /><line x1 = "1080" y1 = "532" x2 = "1105" y2 = "532" style="font: bold 16px sans-serif; stroke:rgb(70,70,70);stroke-width:2" fill="none"  /><path d="M 1002 560 C 1002 650, 810 692, 720 692" fill="none"  style="font: bold 16px sans-serif; stroke:rgb(70,70,70);stroke-width:2" /><line x1 = "642" y1 = "720" x2 = "642" y2 = "745" style="font: bold 16px sans-serif; stroke:rgb(70,70,70);stroke-width:2" stroke-dasharray="10 5" /><rect x="565" y="25"  width="155" height="55"  rx="8" ry="8" stroke-width="1" stroke="black" fill="white" fill-opacity="1.0"   style=""  /><text x="642" y="55" text-anchor="middle"  font-size="12"   style="font: bold 14 sans-serif;">clearing n</text><rect x="745" y="185"  width="155" height="55"  rx="8" ry="8" stroke-width="1" stroke="black" fill="white" fill-opacity="1.0"   style=""  /><text x="822" y="215" text-anchor="middle"  font-size="12"   style="font: bold 14 sans-serif;">up a tree</text><ellipse cx="102" cy="292" rx="100" ry="50" stroke="black" fill="white" style="" /><text x="102" y="295" text-anchor="middle"  font-size="12"   style="font: bold 14 sans-serif;">forest nw</text><rect x="565" y="265"  width="155" height="55"  rx="8" ry="8" stroke-width="1" stroke="black" fill="white" fill-opacity="1.0"   style=""  /><text x="642" y="295" text-anchor="middle"  font-size="12"   style="font: bold 14 sans-serif;">forest path</text><rect x="1105" y="265"  width="155" height="55"  rx="8" ry="8" stroke-width="1" stroke="black" fill="white" fill-opacity="1.0"   style=""  /><text x="1182" y="295" text-anchor="middle"  font-size="12"   style="font: bold 14 sans-serif;">forest ne</text><ellipse cx="1542" cy="292" rx="100" ry="50" stroke="black" fill="white" style="" /><text x="1542" y="295" text-anchor="middle"  font-size="12"   style="font: bold 14 sans-serif;">forest ne e</text><rect x="565" y="345"  width="155" height="55"  rx="8" ry="8" stroke-width="1" stroke="black" fill="white" fill-opacity="1.0"   style=""  /><text x="642" y="375" text-anchor="middle"  font-size="12"   style="font: bold 14 sans-serif;">north of house</text><rect x="745" y="425"  width="155" height="55"  rx="8" ry="8" stroke-width="1" stroke="black" fill="white" fill-opacity="1.0"   style=""  /><text x="822" y="455" text-anchor="middle"  font-size="12"   style="font: bold 14 sans-serif;">attic</text><rect x="25" y="505"  width="155" height="55"  rx="8" ry="8" stroke-width="1" stroke="black" fill="white" fill-opacity="1.0"   style=""  /><text x="102" y="535" text-anchor="middle"  font-size="12"   style="font: bold 14 sans-serif;">forest w</text><rect x="205" y="505"  width="155" height="55"  rx="8" ry="8" stroke-width="1" stroke="black" fill="white" fill-opacity="1.0"   style="stroke:black; stroke-width:3"  /><text x="282" y="535" text-anchor="middle"  font-size="12"   style="font: bold 14 sans-serif;">west of house</text><rect x="205" y="505" width="155" rx="5" ry="5" height="55" fill="none" stroke="orange" stroke-width="2" stroke-dasharray="10 10" stroke-dashoffset="0"> <animate attributeName="stroke-dashoffset" values="0;20" dur="2s" repeatCount="indefinite" /> </rect><rect x="565" y="505"  width="155" height="55"  rx="8" ry="8" stroke-width="1" stroke="black" fill="white" fill-opacity="1.0"   style=""  /><text x="642" y="535" text-anchor="middle"  font-size="12"   style="font: bold 14 sans-serif;">living room</text><rect x="433" y="415" width="480" rx="5" ry="5" height="210" stroke-width="2" fill="none" stroke="rgb(30,30,30)" stroke-dasharray="10 10" stroke-dashoffset="0"> </rect> <rect x="745" y="505"  width="155" height="55"  rx="8" ry="8" stroke-width="1" stroke="black" fill="white" fill-opacity="1.0"   style=""  /><text x="822" y="535" text-anchor="middle"  font-size="12"   style="font: bold 14 sans-serif;">kitchen</text> <text x="825" y="491">D</text> <text x="807" y="503">U</text> <rect x="925" y="505"  width="155" height="55"  rx="8" ry="8" stroke-width="1" stroke="black" fill="white" fill-opacity="1.0"   style=""  /><text x="1002" y="535" text-anchor="middle"  font-size="12"   style="font: bold 14 sans-serif;">behind house</text><rect x="1105" y="505"  width="155" height="55"  rx="8" ry="8" stroke-width="1" stroke="black" fill="white" fill-opacity="1.0"   style=""  /><text x="1182" y="535" text-anchor="middle"  font-size="12"   style="font: bold 14 sans-serif;">clearing</text><rect x="565" y="665"  width="155" height="55"  rx="8" ry="8" stroke-width="1" stroke="black" fill="white" fill-opacity="1.0"   style=""  /><text x="642" y="695" text-anchor="middle"  font-size="12"   style="font: bold 14 sans-serif;">south of house</text><rect x="565" y="745"  width="155" height="55"  rx="8" ry="8" stroke-width="1" stroke="black" fill="white" fill-opacity="1.0"   style=""  /><text x="642" y="775" text-anchor="middle"  font-size="12"   style="font: bold 14 sans-serif;">forest</text><path stroke="black" fill="white" transform=" rotate(180 900 238)  translate(900 238)"  d="M10,0 L17,5  L12,5 L12,13  L8,13  L8,5  L3,5  L10,0"  />  , <path stroke="black" fill="white"  transform="translate(565 267)" d="M10,0 L17,5  L12,5 L12,13  L8,13  L8,5  L3,5  L10,0"  />  ,<path stroke="black" fill="white" transform=" rotate(180 900 478)  translate(900 478)"  d="M10,0 L17,5  L12,5 L12,13  L8,13  L8,5  L3,5  L10,0"  />  , <path stroke="black" fill="white"  transform="translate(745 507)" d="M10,0 L17,5  L12,5 L12,13  L8,13  L8,5  L3,5  L10,0"  />  </svg>