<?xml version="1.0" encoding="UTF-8"?>
<!DOCTYPE svg PUBLIC "-//W3C//DTD SVG 1.1//EN" "http://www.w3.org/Graphics/SVG/1.1/DTD/svg11.dtd">
<svg xmlns="http://www.w3.org/2000/svg" version="1.1" width="1465" height="905" style="background-color:lightgray;" ><defs><marker id="arrow" stroke="black" fill="white" viewBox="0 0 10 10" refX="10" refY="5" markerWidth="6" markerHeight="6" orient="auto-start-reverse" markerUnits="strokeWidth"> <path d="M 0 0 L 10 5 L 0 10 z" /></marker><marker id="redArrow" stroke="black" fill="red" viewBox="0 0 10 10" refX="10" refY="5" markerWidth="6" markerHeight="6" orient="auto-start-reverse" markerUnits="strokeWidth"> <path d="M 0 0 L 10 5 L 0 10 z" /></marker><marker id="blackArrow" stroke="black" fill="black" viewBox="0 0 10 10" refX="10" refY="5" markerWidth="6" markerHeight="6" orient="auto-start-reverse" markerUnits="strokeWidth"> <path d="M 0 0 L 10 5 L 0 10 z" /></marker></defs><line x1 = "565" y1 = "80" x2 = "180" y2 = "265" style="font: bold 16px sans-serif; stroke:rgb(70,70,70);stroke-width:2" fill="none"  /><line x1 = "180" y1 = "320" x2 = "565" y2 = "505" style="font: bold 16px sans-serif; stroke:rgb(70,70,70);stroke-width:2" fill="none"  /><line x1 = "642" y1 = "560" x2 = "642" y2 = "745" style="font: bold 16px sans-serif; stroke:rgb(70,70,70);stroke-width:2" fill="none"  /><line x1 = "1362" y1 = "560" x2 = "1362" y2 = "665" style="font: bold 16px sans-serif; stroke:rgb(70,70,70);stroke-width:2" fill="none"  /><line x1 = "1362" y1 = "720" x2 = "1362" y2 = "745" style="font: bold 16px sans-serif; stroke:rgb(70,70,70);stroke-width:2" fill="none"  /><line x1 = "720" y1 = "800" x2 = "745" y2 = "825" style="font: bold 16px sans-serif; stroke:rgb(70,70,70);stroke-width:2" fill="none"  /><line x1 = "1080" y1 = "800" x2 = "1105" y2 = "825" style="font: bold 16px sans-serif; stroke:rgb(70,70,70);stroke-width:2" fill="none"  /><line x1 = "925" y1 = "800" x2 = "900" y2 = "825" style="font: bold 16px sans-serif; stroke:rgb(70,70,70);stroke-width:2" fill="none"  /><line x1 = "1285" y1 = "800" x2 = "1260" y2 = "825" style="font: bold 16px sans-serif; stroke:rgb(70,70,70);stroke-width:2" fill="none"  /><line x1 = "900" y1 = "852" x2 = "1105" y2 = "852" style="font: bold 16px sans-serif; stroke:rgb(70,70,70);stroke-width:2" fill="none"  /><rect x="565" y="25"  width="155" height="55" rx="8" ry="8" stroke-width="1" stroke="black" fill="white"  style=""  /><text x="642" y="55" text-anchor="middle"  font-size="12"   style="font: bold 14 sans-serif;">northern shore</text><rect x="25" y="265"  width="155" height="55" rx="8" ry="8" stroke-width="1" stroke="black" fill="white"  style=""  /><text x="102" y="295" text-anchor="middle"  font-size="12"   style="font: bold 14 sans-serif;">next to a jetty</text><rect x="565" y="505"  width="155" height="55" rx="8" ry="8" stroke-width="1" stroke="black" fill="white"  style=""  /><text x="642" y="535" text-anchor="middle"  font-size="12"   style="font: bold 14 sans-serif;">edge of the forest</text><rect x="1285" y="505"  width="155" height="55" rx="8" ry="8" stroke-width="1" stroke="black" fill="white"  style=""  /><text x="1362" y="535" text-anchor="middle"  font-size="12"   style="font: bold 14 sans-serif;">meadow</text><rect x="1285" y="665"  width="155" height="55" rx="8" ry="8" stroke-width="1" stroke="black" fill="white"  style=""  /><text x="1362" y="695" text-anchor="middle"  font-size="12"   style="font: bold 14 sans-serif;">the back yard</text><rect x="565" y="745"  width="155" height="55" rx="8" ry="8" stroke-width="1" stroke="black" fill="white"  style="stroke:black; stroke-width:3"  /><text x="642" y="775" text-anchor="middle"  font-size="12"   style="font: bold 14 sans-serif;">side of the house we</text><rect x="925" y="745"  width="155" height="55" rx="8" ry="8" stroke-width="1" stroke="black" fill="white"  style=""  /><text x="1002" y="775" text-anchor="middle"  font-size="12"   style="font: bold 14 sans-serif;">porch</text><rect x="1285" y="745"  width="155" height="55" rx="8" ry="8" stroke-width="1" stroke="black" fill="white"  style=""  /><text x="1362" y="775" text-anchor="middle"  font-size="12"   style="font: bold 14 sans-serif;">on the east side of </text><rect x="745" y="825"  width="155" height="55" rx="8" ry="8" stroke-width="1" stroke="black" fill="white"  style=""  /><text x="822" y="855" text-anchor="middle"  font-size="12"   style="font: bold 14 sans-serif;">lawn</text><rect x="1105" y="825"  width="155" height="55" rx="8" ry="8" stroke-width="1" stroke="black" fill="white"  style=""  /><text x="1182" y="855" text-anchor="middle"  font-size="12"   style="font: bold 14 sans-serif;">on the driveway</text><line x1 = "180" y1 = "292" x2 = "205" y2 = "292" style="font: bold 16px sans-serif; stroke:rgb(70,70,70);stroke-width:2" fill="none"  />,<line x1 = "1285" y1 = "532" x2 = "1260" y2 = "532" style="font: bold 16px sans-serif; stroke:rgb(70,70,70);stroke-width:2" fill="none"  />,<line x1 = "1285" y1 = "665" x2 = "1260" y2 = "640" style="font: bold 16px sans-serif; stroke:rgb(70,70,70);stroke-width:2" fill="none"  />,<rect x="998" y="729"  width="8" height="12"  style = "fill:white; stroke:black;" rx="2" ry="2" /> <circle cx="999" cy="735" r="0.5"  style = "stroke:black; fill:black;" /> ,<text x="1055" y="760" style="stroke: grey; font-size:8px">[in]</text>,<line x1 = "1440" y1 = "772" x2 = "1465" y2 = "772" style="font: bold 16px sans-serif; stroke:rgb(70,70,70);stroke-width:2" fill="none"  />,<text x="1415" y="760" style="stroke: grey; font-size:8px">[in]</text></svg>